<?xml version="1.0" encoding="utf-8"?>
<!-- Generator: Adobe Illustrator 17.0.0, SVG Export Plug-In . SVG Version: 6.00 Build 0)  -->
<!DOCTYPE svg PUBLIC "-//W3C//DTD SVG 1.1//EN" "http://www.w3.org/Graphics/SVG/1.1/DTD/svg11.dtd">
<svg version="1.1" xmlns="http://www.w3.org/2000/svg" xmlns:xlink="http://www.w3.org/1999/xlink" x="0px" y="0px" width="254px"
	 height="60.374px" viewBox="0 0 254 60.374" enable-background="new 0 0 254 60.374" xml:space="preserve">
<g id="Layer_1">
	<g>
		<path fill="#571963" d="M203.278,42.913c-1.343,0-2.142,1.011-2.232,2.202h4.479C205.465,43.894,204.545,42.913,203.278,42.913z"
			/>
		<path fill="#571963" d="M138.817,42.924c-1.342-0.02-2.156,0.98-2.264,2.169l4.48,0.066
			C140.99,43.936,140.084,42.943,138.817,42.924z"/>
		<path fill="#571963" d="M211.378,42.913c-1.343,0-2.142,1.011-2.232,2.202h4.479C213.565,43.894,212.645,42.913,211.378,42.913z"
			/>
		<path fill="#571963" d="M118.313,42.853c-1.342-0.02-2.156,0.979-2.264,2.169l4.479,0.065
			C120.486,43.866,119.58,42.872,118.313,42.853z"/>
		<path fill="#571963" d="M52.443,30.206v30.168H254V30.206H52.443z M74.8,49.857l-1.568-0.023l-5.5-8.724l-0.03-0.001l-0.126,8.642
			l-1.358-0.02l0.157-10.769l1.524,0.022l5.543,8.815l0.03,0l0.128-8.732l1.357,0.02L74.8,49.857z M79.82,49.892
			c-2.474-0.036-3.76-1.85-3.727-4.128c0.033-2.292,1.372-4.068,3.846-4.032c2.473,0.036,3.759,1.85,3.726,4.142
			C83.632,48.152,82.293,49.928,79.82,49.892z M89.156,43.113c-2.066-0.03-2.838,1.135-2.866,3.111l-0.051,3.469l-1.282-0.019
			l0.114-7.797l1.207,0.018l-0.024,1.644l0.03,0c0.636-1.243,1.505-1.849,2.892-1.783L89.156,43.113z M94.248,43.131l-1.554-0.023
			l-0.071,4.842c-0.009,0.588,0.156,0.696,0.955,0.708l0.588,0.009l-0.017,1.131l-0.981-0.014c-1.327-0.019-1.851-0.298-1.83-1.731
			l0.073-4.962l-1.327-0.02l0.017-1.131l1.327,0.019l0.034-2.338l1.282,0.019l-0.034,2.338L94.264,42L94.248,43.131z
			 M102.363,49.798l-1.282-0.019l0.077-5.279c0.014-0.95-0.58-1.577-1.561-1.592c-1.554-0.023-2.323,1.007-2.344,2.41l-0.064,4.404
			l-1.282-0.019l0.157-10.769l1.282,0.019l-0.06,4.117l0.03,0.001c0.436-0.929,1.543-1.305,2.478-1.291
			c2.051,0.03,2.667,1.216,2.643,2.89L102.363,49.798z M111.563,49.826l-1.358-0.02l-1.493-6.222l-0.03,0l-1.659,6.176l-1.388-0.02
			l-2.39-7.834l1.418,0.021l1.672,6.405l0.03,0.001l1.661-6.357l1.403,0.02l1.536,6.403l0.03,0l1.843-6.354l1.327,0.019
			L111.563,49.826z M121.869,46.239l-5.837-0.085c-0.065,1.357,0.687,2.574,2.391,2.599c1.056,0.015,1.802-0.486,2.043-1.494
			l1.267,0.019c-0.372,1.714-1.622,2.631-3.372,2.606c-2.488-0.036-3.64-1.773-3.68-4.157c0.034-2.338,1.597-4.035,3.724-4.004
			C121.166,41.763,121.972,44.355,121.869,46.239z M126.175,49.881c-1.75-0.026-3.217-0.756-3.265-2.687l1.282,0.019
			c0.029,1.147,1.019,1.523,2.075,1.539c0.799,0.012,1.888-0.154,1.902-1.134c0.015-0.996-1.25-1.18-2.528-1.485
			c-1.263-0.305-2.539-0.746-2.517-2.239c0.023-1.569,1.586-2.194,2.943-2.174c1.72,0.025,3.084,0.588,3.162,2.49l-1.282-0.019
			c-0.076-0.997-0.946-1.326-1.791-1.338c-0.769-0.011-1.662,0.187-1.674,0.971c-0.014,0.92,1.342,1.091,2.529,1.395
			c1.278,0.305,2.539,0.746,2.517,2.254C129.501,49.326,127.758,49.904,126.175,49.881z M134.344,43.152l-1.554-0.023l-0.071,4.842
			c-0.009,0.588,0.156,0.696,0.955,0.708l0.588,0.009l-0.017,1.131l-0.98-0.014c-1.327-0.019-1.851-0.298-1.831-1.731l0.073-4.962
			l-1.327-0.02l0.017-1.131l1.327,0.019l0.034-2.338l1.282,0.019l-0.034,2.338l1.553,0.023L134.344,43.152z M142.373,46.31
			l-5.837-0.085c-0.065,1.357,0.687,2.574,2.391,2.599c1.055,0.016,1.802-0.487,2.043-1.494l1.267,0.018
			c-0.372,1.715-1.623,2.632-3.372,2.606c-2.488-0.036-3.64-1.773-3.68-4.157c0.034-2.338,1.597-4.035,3.724-4.004
			C141.669,41.835,142.476,44.426,142.373,46.31z M148.03,43.282c-2.066-0.03-2.837,1.135-2.866,3.111l-0.05,3.469l-1.282-0.019
			l0.114-7.797l1.207,0.018l-0.024,1.644l0.03,0.001c0.636-1.243,1.505-1.849,2.892-1.783L148.03,43.282z M155.576,49.761h-1.283
			v-5.279c0-0.95-0.603-1.569-1.584-1.569c-1.553,0-2.307,1.041-2.307,2.444v4.404h-1.282v-7.798h1.206V43.2h0.03
			c0.543-0.965,1.418-1.418,2.534-1.418c2.051,0,2.685,1.177,2.685,2.851V49.761z M169.808,49.761h-7.482v-10.77h7.436v1.207h-6.003
			v3.424h5.596v1.207h-5.596v3.726h6.049V49.761z M177.787,49.761h-1.283v-5.279c0-0.95-0.603-1.569-1.584-1.569
			c-1.553,0-2.307,1.041-2.307,2.444v4.404h-1.282v-7.798h1.206V43.2h0.03c0.543-0.965,1.418-1.418,2.534-1.418
			c2.051,0,2.685,1.177,2.685,2.851V49.761z M186.445,49.098c0,2.534-1.161,3.831-3.62,3.831c-1.463,0-3.153-0.588-3.228-2.293
			h1.282c0.06,0.935,1.177,1.267,2.021,1.267c1.675,0,2.339-1.207,2.339-2.956v-0.513h-0.03c-0.423,0.95-1.448,1.418-2.429,1.418
			c-2.323,0-3.484-1.825-3.484-3.952c0-1.841,0.905-4.118,3.605-4.118c0.981,0,1.856,0.437,2.323,1.297h0.015v-1.116h1.206V49.098z
			 M189.733,49.761h-1.282v-7.798h1.282V49.761z M189.733,40.56h-1.282v-1.569h1.282V40.56z M198.18,49.761h-1.283v-5.279
			c0-0.95-0.603-1.569-1.584-1.569c-1.553,0-2.307,1.041-2.307,2.444v4.404h-1.282v-7.798h1.206V43.2h0.03
			c0.543-0.965,1.418-1.418,2.534-1.418c2.051,0,2.685,1.177,2.685,2.851V49.761z M206.883,46.247h-5.837
			c-0.046,1.357,0.724,2.564,2.428,2.564c1.056,0,1.795-0.513,2.022-1.523h1.267c-0.347,1.72-1.584,2.655-3.333,2.655
			c-2.489,0-3.666-1.72-3.741-4.103c0-2.338,1.539-4.058,3.665-4.058C206.114,41.782,206.959,44.361,206.883,46.247z
			 M214.983,46.247h-5.837c-0.046,1.357,0.724,2.564,2.428,2.564c1.056,0,1.795-0.513,2.021-1.523h1.267
			c-0.347,1.72-1.584,2.655-3.333,2.655c-2.489,0-3.666-1.72-3.741-4.103c0-2.338,1.539-4.058,3.665-4.058
			C214.214,41.782,215.059,44.361,214.983,46.247z M220.367,43.14c-2.066,0-2.821,1.176-2.821,3.152v3.469h-1.282v-7.798h1.207
			v1.644h0.03c0.619-1.252,1.478-1.871,2.866-1.825V43.14z M222.69,49.761h-1.282v-7.798h1.282V49.761z M222.69,40.56h-1.282v-1.569
			h1.282V40.56z M231.137,49.761h-1.283v-5.279c0-0.95-0.603-1.569-1.584-1.569c-1.553,0-2.307,1.041-2.307,2.444v4.404h-1.282
			v-7.798h1.206V43.2h0.03c0.543-0.965,1.418-1.418,2.534-1.418c2.051,0,2.685,1.177,2.685,2.851V49.761z M239.795,49.098
			c0,2.534-1.161,3.831-3.62,3.831c-1.463,0-3.153-0.588-3.228-2.293h1.282c0.06,0.935,1.177,1.267,2.021,1.267
			c1.675,0,2.339-1.207,2.339-2.956v-0.513h-0.03c-0.423,0.95-1.448,1.418-2.429,1.418c-2.323,0-3.484-1.825-3.484-3.952
			c0-1.841,0.905-4.118,3.605-4.118c0.981,0,1.856,0.437,2.323,1.297h0.015v-1.116h1.206V49.098z"/>
		<path fill="#571963" d="M236.31,42.913c-1.644,0-2.307,1.342-2.307,2.836c0,1.403,0.513,2.971,2.202,2.971
			s2.323-1.554,2.323-3.017C238.528,44.331,237.925,42.913,236.31,42.913z"/>
		<path fill="#571963" d="M79.923,42.863c-1.343-0.02-2.444,1.02-2.472,2.921c-0.028,1.885,1.043,2.957,2.385,2.977
			c1.342,0.02,2.444-1.02,2.471-2.906C82.335,43.954,81.265,42.883,79.923,42.863z"/>
		<path fill="#571963" d="M182.96,42.913c-1.644,0-2.307,1.342-2.307,2.836c0,1.403,0.513,2.971,2.202,2.971
			c1.689,0,2.323-1.554,2.323-3.017C185.178,44.331,184.575,42.913,182.96,42.913z"/>
		<path fill="#005295" d="M55.62,14.731c-1.071,0-1.388,1.101-1.388,1.991c0,1.493,0.558,2.142,1.358,2.142
			c0.845,0,1.358-0.649,1.358-2.142C56.947,15.56,56.434,14.685,55.62,14.731z"/>
		<path fill="#005295" d="M119.557,0H0v30.17h119.557V0z M27.868,20.749H24.67v-3.319l0.045-1.689l0.181-1.961h-0.03l-1.976,6.969
			h-2.474L18.44,13.78h-0.03l0.151,1.599l0.075,1.689v3.681h-3.198V9.889h4.299l1.916,6.773l1.915-6.773h4.299V20.749z
			 M33.764,18.042c-2.549,0-4.51-1.433-4.51-4.103c0-2.7,1.901-4.254,4.51-4.254c2.112,0,4.103,0.905,4.329,3.243H34.91
			c-0.015-0.347-0.136-0.618-0.332-0.814c-0.196-0.211-0.468-0.317-0.814-0.317c-1.177,0-1.373,1.222-1.373,2.157
			c0,1.192,0.452,1.976,1.373,1.976c0.814,0,1.131-0.558,1.222-1.177h3.168C37.882,17.152,35.951,18.042,33.764,18.042z
			 M44.925,21.036c-3.59,0-5.762-2.202-5.762-5.732c0-3.514,2.383-5.701,5.415-5.701c3.318,0,5.174,1.644,5.46,4.435H46.66
			c-0.105-1.131-0.814-1.78-1.931-1.78c-1.252,0-2.006,1.071-2.006,3.168c0,1.523,0.332,2.957,2.142,2.957
			c1.146,0,1.689-0.8,1.825-1.841h3.424C49.798,19.346,47.791,21.036,44.925,21.036z M55.59,20.975
			c-2.534,0-4.495-1.388-4.495-4.088c0-2.745,1.81-4.269,4.48-4.269c2.791,0,4.51,1.644,4.51,4.103
			C60.085,19.618,58.124,20.975,55.59,20.975z M67.129,15.801c-0.211-0.03-0.437-0.09-0.649-0.09c-1.282,0-1.931,0.603-1.931,2.308
			v2.73h-3.137v-7.904h2.851v1.599h0.03c0.437-1.237,1.207-1.825,2.428-1.825c0.136,0,0.272,0.03,0.408,0.045V15.801z
			 M81.994,20.749h-3.137v-4.027c0-1.161-0.226-1.629-1.056-1.629c-0.92,0-1.101,0.799-1.101,1.75v3.907h-3.137v-4.027
			c0-1.161-0.227-1.629-1.056-1.629c-0.92,0-1.101,0.799-1.101,1.75v3.907h-3.137v-7.904h2.881v1.177
			c0.392-0.603,1.373-1.403,2.504-1.403c1.418,0,2.202,0.603,2.579,1.448c0.679-0.95,1.569-1.448,2.73-1.448
			c2.308,0,3.032,1.297,3.032,3.454V20.749z M86.746,20.749h-3.137v-7.904h3.137V20.749z M86.746,11.835h-3.137V9.602h3.137V11.835z
			 M92.689,20.975c-2.549,0-4.51-1.433-4.51-4.103c0-2.7,1.9-4.254,4.51-4.254c2.112,0,4.103,0.905,4.329,3.243h-3.183
			c-0.015-0.347-0.136-0.619-0.332-0.814c-0.196-0.211-0.468-0.317-0.814-0.317c-1.177,0-1.373,1.222-1.373,2.157
			c0,1.192,0.452,1.976,1.373,1.976c0.814,0,1.131-0.558,1.222-1.177h3.168C96.807,20.085,94.876,20.975,92.689,20.975z
			 M103.971,20.749l-1.689-2.805l-0.588,0.588v2.217h-3.137V9.889h3.137v5.37l2.006-2.414h3.665l-2.927,3.062l3.304,4.842H103.971z"
			/>
		<polygon fill="#FFFFFF" points="21.653,16.661 19.738,9.889 15.439,9.889 15.439,20.749 18.636,20.749 18.636,17.068 
			18.561,15.379 18.41,13.78 18.44,13.78 20.416,20.749 22.89,20.749 24.866,13.78 24.896,13.78 24.715,15.741 24.67,17.431 
			24.67,20.749 27.868,20.749 27.868,9.889 23.569,9.889 		"/>
		<path fill="#FFFFFF" d="M33.764,15.93c-0.92,0-1.373-0.784-1.373-1.976c0-0.935,0.196-2.157,1.373-2.157
			c0.347,0,0.618,0.105,0.814,0.317c0.196,0.196,0.317,0.468,0.332,0.814h3.183c-0.226-2.338-2.218-3.243-4.329-3.243
			c-2.609,0-4.51,1.554-4.51,4.254c0,2.67,1.961,4.103,4.51,4.103c2.187,0,4.118-0.89,4.389-3.288h-3.168
			C34.895,15.372,34.578,15.93,33.764,15.93z"/>
		<path fill="#FFFFFF" d="M44.865,18.381c-1.81,0-2.142-1.433-2.142-2.957c0-2.096,0.754-3.168,2.006-3.168
			c1.116,0,1.825,0.649,1.931,1.78h3.379c-0.287-2.791-2.142-4.435-5.46-4.435c-3.032,0-5.415,2.187-5.415,5.701
			c0,3.53,2.172,5.732,5.762,5.732c2.866,0,4.872-1.689,5.189-4.495H46.69C46.555,17.581,46.011,18.381,44.865,18.381z"/>
		<path fill="#FFFFFF" d="M55.574,12.619c-2.67,0-4.48,1.523-4.48,4.269c0,2.7,1.961,4.088,4.495,4.088
			c2.534,0,4.495-1.358,4.495-4.254C60.085,14.263,58.365,12.619,55.574,12.619z M55.59,18.863c-0.799,0-1.358-0.649-1.358-2.142
			c0-0.89,0.317-1.991,1.388-1.991c0.814-0.045,1.327,0.83,1.327,1.991C56.947,18.215,56.434,18.863,55.59,18.863z"/>
		<path fill="#FFFFFF" d="M64.293,14.444h-0.03v-1.599h-2.851v7.904h3.137v-2.73c0-1.705,0.649-2.308,1.931-2.308
			c0.211,0,0.437,0.06,0.649,0.09v-3.137c-0.136-0.015-0.272-0.045-0.408-0.045C65.5,12.619,64.73,13.207,64.293,14.444z"/>
		<path fill="#FFFFFF" d="M78.963,12.619c-1.162,0-2.051,0.498-2.73,1.448c-0.377-0.845-1.162-1.448-2.579-1.448
			c-1.131,0-2.112,0.799-2.504,1.403v-1.177h-2.881v7.904h3.137v-3.907c0-0.95,0.181-1.75,1.101-1.75
			c0.829,0,1.056,0.468,1.056,1.629v4.027H76.7v-3.907c0-0.95,0.181-1.75,1.101-1.75c0.83,0,1.056,0.468,1.056,1.629v4.027h3.137
			v-4.676C81.994,13.916,81.271,12.619,78.963,12.619z"/>
		<rect x="83.608" y="9.602" fill="#FFFFFF" width="3.137" height="2.232"/>
		<rect x="83.608" y="12.845" fill="#FFFFFF" width="3.137" height="7.904"/>
		<path fill="#FFFFFF" d="M92.689,18.863c-0.92,0-1.373-0.784-1.373-1.976c0-0.935,0.196-2.157,1.373-2.157
			c0.347,0,0.618,0.105,0.814,0.317c0.196,0.196,0.317,0.468,0.332,0.814h3.183c-0.226-2.338-2.217-3.243-4.329-3.243
			c-2.609,0-4.51,1.554-4.51,4.254c0,2.67,1.961,4.103,4.51,4.103c2.187,0,4.118-0.89,4.389-3.288h-3.168
			C93.82,18.305,93.503,18.863,92.689,18.863z"/>
		<polygon fill="#FFFFFF" points="107.365,12.845 103.7,12.845 101.694,15.259 101.694,9.889 98.556,9.889 98.556,20.749 
			101.694,20.749 101.694,18.532 102.282,17.944 103.971,20.749 107.742,20.749 104.439,15.907 		"/>
		<polygon fill="#FFFFFF" points="73.473,47.801 73.442,47.801 67.899,38.985 66.376,38.963 66.219,49.732 67.576,49.752 
			67.702,41.109 67.732,41.11 73.232,49.835 74.8,49.857 74.958,39.089 73.6,39.069 		"/>
		<path fill="#FFFFFF" d="M79.939,41.732c-2.474-0.036-3.812,1.74-3.846,4.032c-0.033,2.278,1.253,4.092,3.727,4.128
			c2.473,0.036,3.812-1.74,3.845-4.017C83.699,43.582,82.412,41.768,79.939,41.732z M79.836,48.76
			c-1.342-0.02-2.413-1.091-2.385-2.977c0.028-1.9,1.129-2.94,2.472-2.921c1.342,0.02,2.413,1.091,2.385,2.992
			C82.28,47.74,81.179,48.78,79.836,48.76z"/>
		<path fill="#FFFFFF" d="M86.284,43.539l-0.03,0l0.024-1.644l-1.207-0.018l-0.114,7.797l1.282,0.019l0.051-3.469
			c0.029-1.976,0.8-3.141,2.866-3.111l0.02-1.357C87.789,41.69,86.92,42.296,86.284,43.539z"/>
		<path fill="#FFFFFF" d="M92.745,39.639l-1.282-0.019l-0.034,2.338l-1.327-0.019l-0.017,1.131l1.327,0.02l-0.073,4.962
			c-0.021,1.433,0.503,1.712,1.83,1.731l0.981,0.014l0.017-1.131l-0.588-0.009c-0.8-0.012-0.964-0.12-0.955-0.708l0.071-4.842
			l1.554,0.023L94.264,42l-1.554-0.023L92.745,39.639z"/>
		<path fill="#FFFFFF" d="M99.795,41.781c-0.935-0.014-2.042,0.362-2.478,1.291l-0.03-0.001l0.06-4.117l-1.282-0.019l-0.157,10.769
			l1.282,0.019l0.064-4.404c0.021-1.403,0.79-2.432,2.344-2.41c0.98,0.014,1.574,0.641,1.561,1.592l-0.077,5.279l1.282,0.019
			l0.075-5.128C102.462,42.996,101.846,41.811,99.795,41.781z"/>
		<polygon fill="#FFFFFF" points="110.995,48.4 110.965,48.399 109.429,41.996 108.026,41.976 106.365,48.332 106.335,48.332 
			104.663,41.927 103.245,41.906 105.635,49.74 107.023,49.76 108.682,43.584 108.712,43.584 110.205,49.806 111.563,49.826 
			114.165,42.065 112.838,42.046 		"/>
		<path fill="#FFFFFF" d="M118.406,41.723c-2.127-0.031-3.69,1.666-3.724,4.004c0.04,2.384,1.192,4.121,3.68,4.157
			c1.75,0.026,3-0.891,3.372-2.606l-1.267-0.019c-0.241,1.007-0.988,1.509-2.043,1.494c-1.704-0.025-2.456-1.243-2.391-2.599
			l5.837,0.085C121.972,44.355,121.166,41.763,118.406,41.723z M116.049,45.023c0.108-1.19,0.922-2.189,2.264-2.169
			c1.267,0.019,2.173,1.013,2.215,2.235L116.049,45.023z"/>
		<path fill="#FFFFFF" d="M127.012,45.217c-1.187-0.304-2.542-0.475-2.529-1.395c0.012-0.784,0.905-0.983,1.674-0.971
			c0.845,0.012,1.715,0.342,1.791,1.338l1.282,0.019c-0.078-1.902-1.442-2.465-3.162-2.49c-1.357-0.02-2.921,0.606-2.943,2.174
			c-0.022,1.493,1.254,1.934,2.517,2.239c1.278,0.305,2.542,0.49,2.528,1.485c-0.014,0.98-1.103,1.145-1.902,1.134
			c-1.056-0.016-2.046-0.392-2.075-1.539l-1.282-0.019c0.047,1.931,1.515,2.662,3.265,2.687c1.583,0.023,3.327-0.555,3.354-2.41
			C129.55,45.963,128.29,45.522,127.012,45.217z"/>
		<path fill="#FFFFFF" d="M132.841,39.66l-1.282-0.019l-0.034,2.338l-1.327-0.019l-0.017,1.131l1.327,0.02l-0.073,4.962
			c-0.021,1.433,0.503,1.712,1.831,1.731l0.98,0.014l0.017-1.131l-0.588-0.009c-0.799-0.012-0.964-0.12-0.955-0.708l0.071-4.842
			l1.554,0.023l0.016-1.131l-1.553-0.023L132.841,39.66z"/>
		<path fill="#FFFFFF" d="M138.909,41.794c-2.127-0.031-3.69,1.666-3.724,4.004c0.04,2.384,1.192,4.121,3.68,4.157
			c1.75,0.026,3-0.891,3.372-2.606l-1.267-0.018c-0.241,1.007-0.988,1.509-2.043,1.494c-1.705-0.025-2.456-1.243-2.391-2.599
			l5.837,0.085C142.476,44.426,141.669,41.835,138.909,41.794z M136.553,45.093c0.108-1.19,0.922-2.189,2.264-2.169
			c1.267,0.019,2.173,1.012,2.216,2.235L136.553,45.093z"/>
		<path fill="#FFFFFF" d="M145.157,43.708l-0.03-0.001l0.024-1.644l-1.207-0.018l-0.114,7.797l1.282,0.019l0.05-3.469
			c0.029-1.976,0.8-3.141,2.866-3.111l0.02-1.358C146.663,41.859,145.794,42.464,145.157,43.708z"/>
		<path fill="#FFFFFF" d="M152.89,41.782c-1.116,0-1.991,0.452-2.534,1.418h-0.03v-1.237h-1.206v7.798h1.282v-4.404
			c0-1.403,0.754-2.444,2.307-2.444c0.981,0,1.584,0.618,1.584,1.569v5.279h1.283v-5.128
			C155.576,42.958,154.942,41.782,152.89,41.782z"/>
		<polygon fill="#FFFFFF" points="163.759,44.829 169.355,44.829 169.355,43.622 163.759,43.622 163.759,40.198 169.762,40.198 
			169.762,38.991 162.326,38.991 162.326,49.761 169.808,49.761 169.808,48.555 163.759,48.555 		"/>
		<path fill="#FFFFFF" d="M175.102,41.782c-1.116,0-1.991,0.452-2.534,1.418h-0.03v-1.237h-1.206v7.798h1.282v-4.404
			c0-1.403,0.754-2.444,2.307-2.444c0.981,0,1.584,0.618,1.584,1.569v5.279h1.283v-5.128
			C177.787,42.958,177.153,41.782,175.102,41.782z"/>
		<path fill="#FFFFFF" d="M185.239,43.079h-0.015c-0.468-0.86-1.342-1.297-2.323-1.297c-2.7,0-3.605,2.277-3.605,4.118
			c0,2.127,1.161,3.952,3.484,3.952c0.981,0,2.006-0.468,2.429-1.418h0.03v0.513c0,1.75-0.664,2.956-2.339,2.956
			c-0.844,0-1.96-0.332-2.021-1.267h-1.282c0.075,1.705,1.765,2.293,3.228,2.293c2.459,0,3.62-1.297,3.62-3.831v-7.135h-1.206
			V43.079z M182.855,48.72c-1.689,0-2.202-1.569-2.202-2.971c0-1.494,0.663-2.836,2.307-2.836c1.614,0,2.218,1.418,2.218,2.791
			C185.178,47.167,184.544,48.72,182.855,48.72z"/>
		<rect x="188.451" y="41.963" fill="#FFFFFF" width="1.282" height="7.798"/>
		<rect x="188.451" y="38.991" fill="#FFFFFF" width="1.282" height="1.569"/>
		<path fill="#FFFFFF" d="M195.495,41.782c-1.116,0-1.991,0.452-2.534,1.418h-0.03v-1.237h-1.206v7.798h1.282v-4.404
			c0-1.403,0.754-2.444,2.307-2.444c0.981,0,1.584,0.618,1.584,1.569v5.279h1.283v-5.128
			C198.18,42.958,197.546,41.782,195.495,41.782z"/>
		<path fill="#FFFFFF" d="M203.353,41.782c-2.126,0-3.665,1.719-3.665,4.058c0.075,2.383,1.252,4.103,3.741,4.103
			c1.75,0,2.987-0.935,3.333-2.655h-1.267c-0.226,1.011-0.966,1.523-2.022,1.523c-1.704,0-2.474-1.207-2.428-2.564h5.837
			C206.959,44.361,206.114,41.782,203.353,41.782z M201.046,45.115c0.09-1.192,0.889-2.202,2.232-2.202
			c1.267,0,2.187,0.981,2.247,2.202H201.046z"/>
		<path fill="#FFFFFF" d="M211.453,41.782c-2.126,0-3.665,1.719-3.665,4.058c0.075,2.383,1.251,4.103,3.741,4.103
			c1.75,0,2.987-0.935,3.333-2.655h-1.267c-0.226,1.011-0.966,1.523-2.021,1.523c-1.705,0-2.474-1.207-2.428-2.564h5.837
			C215.059,44.361,214.214,41.782,211.453,41.782z M209.146,45.115c0.09-1.192,0.889-2.202,2.232-2.202
			c1.267,0,2.187,0.981,2.247,2.202H209.146z"/>
		<path fill="#FFFFFF" d="M217.501,43.607h-0.03v-1.644h-1.207v7.798h1.282v-3.469c0-1.976,0.755-3.152,2.821-3.152v-1.358
			C218.98,41.737,218.12,42.355,217.501,43.607z"/>
		<rect x="221.408" y="38.991" fill="#FFFFFF" width="1.282" height="1.569"/>
		<rect x="221.408" y="41.963" fill="#FFFFFF" width="1.282" height="7.798"/>
		<path fill="#FFFFFF" d="M228.452,41.782c-1.116,0-1.991,0.452-2.534,1.418h-0.03v-1.237h-1.206v7.798h1.282v-4.404
			c0-1.403,0.754-2.444,2.307-2.444c0.981,0,1.584,0.618,1.584,1.569v5.279h1.283v-5.128
			C231.137,42.958,230.503,41.782,228.452,41.782z"/>
		<path fill="#FFFFFF" d="M238.589,43.079h-0.015c-0.468-0.86-1.342-1.297-2.323-1.297c-2.7,0-3.605,2.277-3.605,4.118
			c0,2.127,1.161,3.952,3.484,3.952c0.981,0,2.006-0.468,2.429-1.418h0.03v0.513c0,1.75-0.664,2.956-2.339,2.956
			c-0.844,0-1.961-0.332-2.021-1.267h-1.282c0.075,1.705,1.765,2.293,3.228,2.293c2.459,0,3.62-1.297,3.62-3.831v-7.135h-1.206
			V43.079z M236.205,48.72c-1.689,0-2.202-1.569-2.202-2.971c0-1.494,0.663-2.836,2.307-2.836c1.614,0,2.218,1.418,2.218,2.791
			C238.528,47.167,237.894,48.72,236.205,48.72z"/>
	</g>
</g>
<g id="Layer_2">
</g>
</svg>
